# xmcd
#
# Track frame offsets: 
#        150
#        23491
#        64490
#        88940
#        113828
#        161618
#        195731
#        230623
#
# Disc length: 4238 seconds
#
# Revision: 2
# Processed by: cddbd v1.5.2PL0 Copyright (c) Steve Scherf et al.
# Submitted via: ExactAudioCopy v0.99pb4
#
DISCID=67108c08
DTITLE=Isaac Hayes - Black Moses
DYEAR=1971
DGENRE=Soul
TTITLE0=Never Can Say Goodbye
TTITLE1=(They Long To Be) Close To You
TTITLE2=For The Good Times
TTITLE3=Nothing Takes The Place Of You
TTITLE4=Never Gonna Give You Up
TTITLE5=Help Me Love
TTITLE6=Need To Belong To Someone
TTITLE7=Multimedia-Track
EXTD=© 1999\nLabel: Stax Records (Fantasy Inc.]\nSCD24 8509-2\n24 BIT 
EXTD=Remastered\nWith Multimedia-Track incl. Video, Biography And Pict
EXTD=ures
EXTT0=
EXTT1=
EXTT2=
EXTT3=
EXTT4=
EXTT5=
EXTT6=
EXTT7=
PLAYORDER=
